<?xml version="1.0" encoding="utf-8"?>
<!-- Generator: Adobe Illustrator 24.1.3, SVG Export Plug-In . SVG Version: 6.00 Build 0)  -->
<svg version="1.1" id="Capa_1" xmlns="http://www.w3.org/2000/svg" xmlns:xlink="http://www.w3.org/1999/xlink" x="0px" y="0px"
	 viewBox="0 0 144.8 144.8" style="enable-background:new 0 0 144.8 144.8;" xml:space="preserve">
<style type="text/css">
	.st0{fill:none;stroke:#00FFFF;stroke-miterlimit:10;}
</style>
<path class="st0" d="M52.8,8c6.1,4.2,10.3,10.6,11.7,17.8 M69.5,27.5H70c24.8-0.7,45.4,18.9,46.1,43.7c0.1,5.3-0.6,10.5-2.3,15.5
	h24.6c7.9-37-15.7-73.5-52.7-81.4c-11.6-2.5-23.5-2-34.8,1.5l0,0c0.6,0.4,1.3,0.8,1.8,1.2 M65,32c-0.4,15.2-12.6,27.3-27.8,27.6
	l23.6,23.6h8.1l2.3,2.3h3.3L92,67.9v-3.3l-2.3-2.3v-8.1l0,0l-22-22 M33.3,55.1c13.1,1.9,25.3-7.2,27.2-20.3S53.3,9.5,40.1,7.6
	S14.9,14.8,13,27.9c-0.4,2.6-0.3,5.3,0.2,7.9l0,0C-7,67.9,2.7,110.3,34.8,130.4c18.8,11.8,42.2,13.8,62.7,5.3
	c13.4-5.5,25.4-14,35.2-24.7h2.4c2.9-0.2,5.1-2.7,5-5.6c-0.2-2.7-2.4-4.9-5.1-5H91.8c-2.9-0.1-5.4,2.1-5.5,5s2.1,5.4,5,5.5
	c0.2,0,0.3,0,0.5,0c-7.5,4.7-16.3,6.8-25.1,6C42,114.5,24.1,92.5,26.6,67.8c0.4-3.8,1.3-7.6,2.6-11.2 M29.2,56.6l0.2-0.5 M28.9,39.9
	c-2.4-2.2-3.8-5.3-3.8-8.6l0,0c0-6.4,5.2-11.7,11.7-11.7s11.7,5.2,11.7,11.7S43.2,43,36.7,43 M32.6,42.2c-1.4-0.5-2.7-1.3-3.8-2.3"
	/>
</svg>
